<?xml version="1.0" encoding="utf-8"?><svg width="26" height="644" viewBox="0 0 26 644" xmlns="http://www.w3.org/2000/svg" xmlns:xlink="http://www.w3.org/1999/xlink"><svg width="16" height="16" viewBox="0 0 16 16" id="icon-checkbox-16" xmlns="http://www.w3.org/2000/svg"><path fill="#FFF" stroke="#bdbdbd" stroke-miterlimit="10" d="M14.5 15.5h-13c-.55 0-1-.45-1-1v-13c0-.55.45-1 1-1h13c.55 0 1 .45 1 1v13c0 .55-.45 1-1 1z"/></svg><svg width="8" height="8" viewBox="0 0 8 8" id="icon-checkbox-8" y="16" xmlns="http://www.w3.org/2000/svg"><path fill="#2962FF" d="M7 8H1c-.55 0-1-.45-1-1V1c0-.55.45-1 1-1h6c.55 0 1 .45 1 1v6c0 .55-.45 1-1 1z"/></svg><svg width="16" height="16" viewBox="0 0 16 16" id="icon-checkbox-disabled-16" y="24" xmlns="http://www.w3.org/2000/svg"><path fill="#e0e0e0" stroke="#bdbdbd" stroke-miterlimit="10" d="M14.5 15.5h-13c-.55 0-1-.45-1-1v-13c0-.55.45-1 1-1h13c.55 0 1 .45 1 1v13c0 .55-.45 1-1 1z"/></svg><svg width="8" height="8" viewBox="0 0 8 8" id="icon-checkbox-disabled-8" y="40" xmlns="http://www.w3.org/2000/svg"><path fill="#9e9e9e" d="M7 8H1c-.55 0-1-.45-1-1V1c0-.55.45-1 1-1h6c.55 0 1 .45 1 1v6c0 .55-.45 1-1 1z"/></svg><svg width="12" height="12" viewBox="0 0 12 12" id="icon-close-12" y="48" xmlns="http://www.w3.org/2000/svg"><path fill="none" stroke="#bdbdbd" stroke-width="2" stroke-linecap="round" stroke-miterlimit="10" d="M1 1l10 10M1 11L11 1"/></svg><svg width="24" height="24" viewBox="0 0 24 24" id="icon-close-24" y="60" xmlns="http://www.w3.org/2000/svg"><path fill="none" stroke="#bdbdbd" stroke-width="2" stroke-linecap="round" stroke-miterlimit="10" d="M1 1l22 22M1 23L23 1"/></svg><svg width="12" height="12" viewBox="0 0 12 12" id="icon-close-hover-12" y="84" xmlns="http://www.w3.org/2000/svg"><path fill="none" stroke="#141414" stroke-width="2" stroke-linecap="round" stroke-miterlimit="10" d="M1 1l10 10M1 11L11 1"/></svg><svg width="24" height="24" viewBox="0 0 24 24" id="icon-close-hover-24" y="96" xmlns="http://www.w3.org/2000/svg"><path fill="none" stroke="#141414" stroke-width="2" stroke-linecap="round" stroke-miterlimit="10" d="M1 1l22 22M1 23L23 1"/></svg><svg width="26" height="16" viewBox="0 0 26 16" id="icon-down-26x16" y="120" xmlns="http://www.w3.org/2000/svg"><path fill="none" stroke="#bdbdbd" stroke-width="2" stroke-miterlimit="10" d="M1 2l12 12L25 2"/></svg><svg width="26" height="16" viewBox="0 0 26 16" id="icon-down-hover-26x16" y="136" xmlns="http://www.w3.org/2000/svg"><path fill="none" stroke="#141414" stroke-width="2" stroke-miterlimit="10" d="M1 2l12 12L25 2"/></svg><svg width="10" height="14" viewBox="0 0 10 14" id="icon-drilldown-left-10x14" y="152" xmlns="http://www.w3.org/2000/svg"><path fill="none" stroke="#bdbdbd" stroke-width="2" stroke-miterlimit="10" d="M8 1L2 7l6 6"/></svg><svg width="10" height="14" viewBox="0 0 10 14" id="icon-drilldown-left-hover-10x14" y="166" xmlns="http://www.w3.org/2000/svg"><path fill="none" stroke="#757575" stroke-width="2" stroke-miterlimit="10" d="M8 1L2 7l6 6"/></svg><svg width="10" height="14" viewBox="0 0 10 14" id="icon-drilldown-right-10x14" y="180" xmlns="http://www.w3.org/2000/svg"><path fill="none" stroke="#bdbdbd" stroke-width="2" stroke-miterlimit="10" d="M2 13l6-6-6-6"/></svg><svg width="10" height="14" viewBox="0 0 10 14" id="icon-drilldown-right-hover-10x14" y="194" xmlns="http://www.w3.org/2000/svg"><path fill="none" stroke="#757575" stroke-width="2" stroke-miterlimit="10" d="M2 13l6-6-6-6"/></svg><svg width="16" height="14" viewBox="0 0 16 14" id="icon-first-16x14" y="208" xmlns="http://www.w3.org/2000/svg"><path fill="none" stroke="#757575" stroke-width="2" stroke-miterlimit="10" d="M14 1L8 7l6 6M8 1L2 7l6 6"/></svg><svg width="16" height="14" viewBox="0 0 16 14" id="icon-first-disabled-16x14" y="222" xmlns="http://www.w3.org/2000/svg"><path fill="none" stroke="#bdbdbd" stroke-width="2" stroke-miterlimit="10" d="M14 1L8 7l6 6M8 1L2 7l6 6"/></svg><svg width="16" height="14" viewBox="0 0 16 14" id="icon-first-hover-16x14" y="236" xmlns="http://www.w3.org/2000/svg"><path fill="none" stroke="#2962FF" stroke-width="2" stroke-miterlimit="10" d="M14 1L8 7l6 6M8 1L2 7l6 6"/></svg><svg width="20" height="14" viewBox="0 0 20 14" id="icon-hamburger-20x14" y="250" xmlns="http://www.w3.org/2000/svg"><path fill="#bdbdbd" d="M19 2H1c-.55 0-1-.45-1-1s.45-1 1-1h18c.55 0 1 .45 1 1s-.45 1-1 1zM19 8H1c-.55 0-1-.45-1-1s.45-1 1-1h18c.55 0 1 .45 1 1s-.45 1-1 1zM19 14H1c-.55 0-1-.45-1-1s.45-1 1-1h18c.55 0 1 .45 1 1s-.45 1-1 1z"/></svg><svg width="20" height="14" viewBox="0 0 20 14" id="icon-hamburger-hover-20x14" y="264" xmlns="http://www.w3.org/2000/svg"><path fill="#141414" d="M19 2H1c-.55 0-1-.45-1-1s.45-1 1-1h18c.55 0 1 .45 1 1s-.45 1-1 1zM19 8H1c-.55 0-1-.45-1-1s.45-1 1-1h18c.55 0 1 .45 1 1s-.45 1-1 1zM19 14H1c-.55 0-1-.45-1-1s.45-1 1-1h18c.55 0 1 .45 1 1s-.45 1-1 1z"/></svg><svg width="16" height="14" viewBox="0 0 16 14" id="icon-last-16x14" y="278" xmlns="http://www.w3.org/2000/svg"><path fill="none" stroke="#757575" stroke-width="2" stroke-miterlimit="10" d="M2 13l6-6-6-6M8 13l6-6-6-6"/></svg><svg width="16" height="14" viewBox="0 0 16 14" id="icon-last-disabled-16x14" y="292" xmlns="http://www.w3.org/2000/svg"><path fill="none" stroke="#bdbdbd" stroke-width="2" stroke-miterlimit="10" d="M2 13l6-6-6-6M8 13l6-6-6-6"/></svg><svg width="16" height="14" viewBox="0 0 16 14" id="icon-last-hover-16x14" y="306" xmlns="http://www.w3.org/2000/svg"><path fill="none" stroke="#2962FF" stroke-width="2" stroke-miterlimit="10" d="M2 13l6-6-6-6M8 13l6-6-6-6"/></svg><svg width="24" height="24" viewBox="0 0 24 24" id="icon-minus-24" y="320" xmlns="http://www.w3.org/2000/svg"><path fill="#bdbdbd" d="M0 11h24v2H0z"/></svg><svg width="24" height="24" viewBox="0 0 24 24" id="icon-minus-hover-24" y="344" xmlns="http://www.w3.org/2000/svg"><path fill="#141414" d="M0 11h24v2H0z"/></svg><svg width="10" height="14" viewBox="0 0 10 14" id="icon-next-10x14" y="368" xmlns="http://www.w3.org/2000/svg"><path fill="none" stroke="#757575" stroke-width="2" stroke-miterlimit="10" d="M2 13l6-6-6-6"/></svg><svg width="10" height="14" viewBox="0 0 10 14" id="icon-next-disabled-10x14" y="382" xmlns="http://www.w3.org/2000/svg"><path fill="none" stroke="#bdbdbd" stroke-width="2" stroke-miterlimit="10" d="M2 13l6-6-6-6"/></svg><svg width="10" height="14" viewBox="0 0 10 14" id="icon-next-hover-10x14" y="396" xmlns="http://www.w3.org/2000/svg"><path fill="none" stroke="#2962FF" stroke-width="2" stroke-miterlimit="10" d="M2 13l6-6-6-6"/></svg><svg width="24" height="24" viewBox="0 0 24 24" id="icon-plus-24" y="410" xmlns="http://www.w3.org/2000/svg"><path fill="#bdbdbd" d="M0 11h24v2H0z"/><path fill="#bdbdbd" d="M11 24V0h2v24z"/></svg><svg width="24" height="24" viewBox="0 0 24 24" id="icon-plus-hover-24" y="434" xmlns="http://www.w3.org/2000/svg"><path fill="#141414" d="M0 11h24v2H0z"/><path fill="#141414" d="M11 24V0h2v24z"/></svg><svg width="10" height="14" viewBox="0 0 10 14" id="icon-prev-10x14" y="458" xmlns="http://www.w3.org/2000/svg"><path fill="none" stroke="#757575" stroke-width="2" stroke-miterlimit="10" d="M8 1L2 7l6 6"/></svg><svg width="10" height="14" viewBox="0 0 10 14" id="icon-prev-disabled-10x14" y="472" xmlns="http://www.w3.org/2000/svg"><path fill="none" stroke="#bdbdbd" stroke-width="2" stroke-miterlimit="10" d="M8 1L2 7l6 6"/></svg><svg width="10" height="14" viewBox="0 0 10 14" id="icon-prev-hover-10x14" y="486" xmlns="http://www.w3.org/2000/svg"><path fill="none" stroke="#2962FF" stroke-width="2" stroke-miterlimit="10" d="M8 1L2 7l6 6"/></svg><svg width="16" height="16" viewBox="0 0 16 16" id="icon-radio-16" y="500" xmlns="http://www.w3.org/2000/svg"><circle fill="#FFF" stroke="#bdbdbd" stroke-miterlimit="10" cx="8" cy="8" r="7.5"/></svg><svg width="8" height="8" viewBox="0 0 8 8" id="icon-radio-8" y="516" xmlns="http://www.w3.org/2000/svg"><circle cx="4" cy="4" r="4" fill="#2962FF"/></svg><svg width="16" height="16" viewBox="0 0 16 16" id="icon-radio-disabled-16" y="524" xmlns="http://www.w3.org/2000/svg"><circle fill="#e0e0e0" stroke="#bdbdbd" stroke-miterlimit="10" cx="8" cy="8" r="7.5"/></svg><svg width="8" height="8" viewBox="0 0 8 8" id="icon-radio-disabled-8" y="540" xmlns="http://www.w3.org/2000/svg"><circle cx="4" cy="4" r="4" fill="#9e9e9e"/></svg><svg width="16" height="16" viewBox="0 0 16 16" id="icon-slider-16x16" y="548" xmlns="http://www.w3.org/2000/svg"><circle fill="#2962FF" cx="8" cy="8" r="8"/></svg><svg width="24" height="24" viewBox="0 0 24 24" id="icon-slider-24x24" y="564" xmlns="http://www.w3.org/2000/svg"><circle fill="#2962FF" cx="12" cy="12" r="12"/></svg><svg width="16" height="16" viewBox="0 0 16 16" id="icon-slider-hover-16x16" y="588" xmlns="http://www.w3.org/2000/svg"><circle fill="#003fed" cx="8" cy="8" r="8"/></svg><svg width="24" height="24" viewBox="0 0 24 24" id="icon-slider-hover-24x24" y="604" xmlns="http://www.w3.org/2000/svg"><circle fill="#003fed" cx="12" cy="12" r="12"/></svg><svg width="26" height="16" viewBox="0 0 26 16" id="icon-up-hover-26x16" y="628" xmlns="http://www.w3.org/2000/svg"><path fill="none" stroke="#141414" stroke-width="2" stroke-miterlimit="10" d="M25 14L13 2 1 14"/></svg></svg>