<?xml version="1.0" encoding="utf-8"?>
<!-- Generator: Adobe Illustrator 22.0.1, SVG Export Plug-In . SVG Version: 6.00 Build 0)  -->
<svg version="1.1" id="Layer_1" xmlns="http://www.w3.org/2000/svg" xmlns:xlink="http://www.w3.org/1999/xlink" x="0px" y="0px"
	 width="20px" height="14px" viewBox="0 0 20 14" enable-background="new 0 0 20 14" xml:space="preserve">
<path fill="#141414" d="M19,2H1C0.45,2,0,1.55,0,1v0c0-0.55,0.45-1,1-1h18c0.55,0,1,0.45,1,1v0C20,1.55,19.55,2,19,2z"/>
<path fill="#141414" d="M19,8H1C0.45,8,0,7.55,0,7v0c0-0.55,0.45-1,1-1h18c0.55,0,1,0.45,1,1v0C20,7.55,19.55,8,19,8z"/>
<path fill="#141414" d="M19,14H1c-0.55,0-1-0.45-1-1v0c0-0.55,0.45-1,1-1h18c0.55,0,1,0.45,1,1v0C20,13.55,19.55,14,19,14z"/>
</svg>
