<svg width="26" height="612" xmlns="http://www.w3.org/2000/svg" xmlns:xlink="http://www.w3.org/1999/xlink"><svg width="16" height="16" xmlns="http://www.w3.org/2000/svg"><path fill="#FFF" stroke="#bdbdbd" stroke-miterlimit="10" d="M14.5 15.5h-13c-.55 0-1-.45-1-1v-13c0-.55.45-1 1-1h13c.55 0 1 .45 1 1v13c0 .55-.45 1-1 1z"/></svg><svg width="8" height="8" y="16" xmlns="http://www.w3.org/2000/svg"><path fill="#2962FF" d="M7 8H1c-.55 0-1-.45-1-1V1c0-.55.45-1 1-1h6c.55 0 1 .45 1 1v6c0 .55-.45 1-1 1z"/></svg><svg width="12" height="12" y="24" xmlns="http://www.w3.org/2000/svg"><path fill="none" stroke="#bdbdbd" stroke-width="2" stroke-linecap="round" stroke-miterlimit="10" d="M1 1l10 10M1 11L11 1"/></svg><svg width="24" height="24" y="36" xmlns="http://www.w3.org/2000/svg"><path fill="none" stroke="#bdbdbd" stroke-width="2" stroke-linecap="round" stroke-miterlimit="10" d="M1 1l22 22M1 23L23 1"/></svg><svg width="12" height="12" y="60" xmlns="http://www.w3.org/2000/svg"><path fill="none" stroke="#141414" stroke-width="2" stroke-linecap="round" stroke-miterlimit="10" d="M1 1l10 10M1 11L11 1"/></svg><svg width="24" height="24" y="72" xmlns="http://www.w3.org/2000/svg"><path fill="none" stroke="#141414" stroke-width="2" stroke-linecap="round" stroke-miterlimit="10" d="M1 1l22 22M1 23L23 1"/></svg><svg width="26" height="16" y="96" xmlns="http://www.w3.org/2000/svg"><path fill="none" stroke="#bdbdbd" stroke-width="2" stroke-miterlimit="10" d="M1 2l12 12L25 2"/></svg><svg width="26" height="16" y="112" xmlns="http://www.w3.org/2000/svg"><path fill="none" stroke="#141414" stroke-width="2" stroke-miterlimit="10" d="M1 2l12 12L25 2"/></svg><svg width="10" height="14" y="128" xmlns="http://www.w3.org/2000/svg"><path fill="none" stroke="#bdbdbd" stroke-width="2" stroke-miterlimit="10" d="M8 1L2 7l6 6"/></svg><svg width="10" height="14" y="142" xmlns="http://www.w3.org/2000/svg"><path fill="none" stroke="#757575" stroke-width="2" stroke-miterlimit="10" d="M8 1L2 7l6 6"/></svg><svg width="10" height="14" y="156" xmlns="http://www.w3.org/2000/svg"><path fill="none" stroke="#bdbdbd" stroke-width="2" stroke-miterlimit="10" d="M2 13l6-6-6-6"/></svg><svg width="10" height="14" y="170" xmlns="http://www.w3.org/2000/svg"><path fill="none" stroke="#757575" stroke-width="2" stroke-miterlimit="10" d="M2 13l6-6-6-6"/></svg><svg width="16" height="14" y="184" xmlns="http://www.w3.org/2000/svg"><path fill="none" stroke="#757575" stroke-width="2" stroke-miterlimit="10" d="M14 1L8 7l6 6M8 1L2 7l6 6"/></svg><svg width="16" height="14" y="198" xmlns="http://www.w3.org/2000/svg"><path fill="none" stroke="#bdbdbd" stroke-width="2" stroke-miterlimit="10" d="M14 1L8 7l6 6M8 1L2 7l6 6"/></svg><svg width="16" height="14" y="212" xmlns="http://www.w3.org/2000/svg"><path fill="none" stroke="#2962FF" stroke-width="2" stroke-miterlimit="10" d="M14 1L8 7l6 6M8 1L2 7l6 6"/></svg><svg width="20" height="14" y="226" xmlns="http://www.w3.org/2000/svg"><path fill="#bdbdbd" d="M19 2H1c-.55 0-1-.45-1-1s.45-1 1-1h18c.55 0 1 .45 1 1s-.45 1-1 1zm0 6H1c-.55 0-1-.45-1-1s.45-1 1-1h18c.55 0 1 .45 1 1s-.45 1-1 1zm0 6H1c-.55 0-1-.45-1-1s.45-1 1-1h18c.55 0 1 .45 1 1s-.45 1-1 1z"/></svg><svg width="20" height="14" y="240" xmlns="http://www.w3.org/2000/svg"><path fill="#141414" d="M19 2H1c-.55 0-1-.45-1-1s.45-1 1-1h18c.55 0 1 .45 1 1s-.45 1-1 1zm0 6H1c-.55 0-1-.45-1-1s.45-1 1-1h18c.55 0 1 .45 1 1s-.45 1-1 1zm0 6H1c-.55 0-1-.45-1-1s.45-1 1-1h18c.55 0 1 .45 1 1s-.45 1-1 1z"/></svg><svg width="16" height="14" y="254" xmlns="http://www.w3.org/2000/svg"><path fill="none" stroke="#757575" stroke-width="2" stroke-miterlimit="10" d="M2 13l6-6-6-6m6 12l6-6-6-6"/></svg><svg width="16" height="14" y="268" xmlns="http://www.w3.org/2000/svg"><path fill="none" stroke="#bdbdbd" stroke-width="2" stroke-miterlimit="10" d="M2 13l6-6-6-6m6 12l6-6-6-6"/></svg><svg width="16" height="14" y="282" xmlns="http://www.w3.org/2000/svg"><path fill="none" stroke="#2962FF" stroke-width="2" stroke-miterlimit="10" d="M2 13l6-6-6-6m6 12l6-6-6-6"/></svg><svg width="24" height="24" y="296" xmlns="http://www.w3.org/2000/svg"><path fill="#bdbdbd" d="M0 11h24v2H0z"/></svg><svg width="24" height="24" y="320" xmlns="http://www.w3.org/2000/svg"><path fill="#141414" d="M0 11h24v2H0z"/></svg><svg width="10" height="14" y="344" xmlns="http://www.w3.org/2000/svg"><path fill="none" stroke="#757575" stroke-width="2" stroke-miterlimit="10" d="M2 13l6-6-6-6"/></svg><svg width="10" height="14" y="358" xmlns="http://www.w3.org/2000/svg"><path fill="none" stroke="#bdbdbd" stroke-width="2" stroke-miterlimit="10" d="M2 13l6-6-6-6"/></svg><svg width="10" height="14" y="372" xmlns="http://www.w3.org/2000/svg"><path fill="none" stroke="#2962FF" stroke-width="2" stroke-miterlimit="10" d="M2 13l6-6-6-6"/></svg><svg width="24" height="24" y="386" xmlns="http://www.w3.org/2000/svg"><path fill="#bdbdbd" d="M0 11h24v2H0z"/><path fill="#bdbdbd" d="M11 24V0h2v24z"/></svg><svg width="24" height="24" y="410" xmlns="http://www.w3.org/2000/svg"><path fill="#141414" d="M0 11h24v2H0z"/><path fill="#141414" d="M11 24V0h2v24z"/></svg><svg width="10" height="14" y="434" xmlns="http://www.w3.org/2000/svg"><path fill="none" stroke="#757575" stroke-width="2" stroke-miterlimit="10" d="M8 1L2 7l6 6"/></svg><svg width="10" height="14" y="448" xmlns="http://www.w3.org/2000/svg"><path fill="none" stroke="#bdbdbd" stroke-width="2" stroke-miterlimit="10" d="M8 1L2 7l6 6"/></svg><svg width="10" height="14" y="462" xmlns="http://www.w3.org/2000/svg"><path fill="none" stroke="#2962FF" stroke-width="2" stroke-miterlimit="10" d="M8 1L2 7l6 6"/></svg><svg width="16" height="16" y="476" xmlns="http://www.w3.org/2000/svg"><circle fill="#FFF" stroke="#bdbdbd" stroke-miterlimit="10" cx="8" cy="8" r="7.5"/></svg><svg width="8" height="8" y="492" xmlns="http://www.w3.org/2000/svg"><circle cx="4" cy="4" r="4" fill="#2962FF"/></svg><svg width="16" height="16" y="500" xmlns="http://www.w3.org/2000/svg"><circle fill="#2962FF" cx="8" cy="8" r="8"/></svg><svg width="24" height="24" y="516" xmlns="http://www.w3.org/2000/svg"><circle fill="#2962FF" cx="12" cy="12" r="12"/></svg><svg width="16" height="16" y="540" xmlns="http://www.w3.org/2000/svg"><circle fill="#003fed" cx="8" cy="8" r="8"/></svg><svg width="24" height="24" y="556" xmlns="http://www.w3.org/2000/svg"><circle fill="#003fed" cx="12" cy="12" r="12"/></svg><svg width="26" height="16" y="580" xmlns="http://www.w3.org/2000/svg"><path fill="none" stroke="#bdbdbd" stroke-width="2" stroke-miterlimit="10" d="M25 14L13 2 1 14"/></svg><svg width="26" height="16" y="596" xmlns="http://www.w3.org/2000/svg"><path fill="none" stroke="#141414" stroke-width="2" stroke-miterlimit="10" d="M25 14L13 2 1 14"/></svg></svg>